<svg xmlns="http://www.w3.org/2000/svg" viewBox="0 0 1200 630">
  <rect width="1200" height="630" fill="#0a0a12" />
  <g opacity="0.8">
    <!-- Sound Waves -->
    <rect x="400" y="250" width="20" height="130" rx="10" fill="#0ea5e9" />
    <rect x="440" y="200" width="20" height="230" rx="10" fill="#06b6d4" />
    <rect x="480" y="100" width="20" height="430" rx="10" fill="#0ea5e9" />
    <rect x="520" y="50" width="20" height="530" rx="10" fill="#06b6d4" />
    <rect x="560" y="150" width="20" height="330" rx="10" fill="#0ea5e9" />
    <rect x="600" y="250" width="20" height="130" rx="10" fill="#06b6d4" />
    <rect x="640" y="180" width="20" height="270" rx="10" fill="#0ea5e9" />
    <rect x="680" y="120" width="20" height="390" rx="10" fill="#06b6d4" />
    <rect x="720" y="220" width="20" height="190" rx="10" fill="#0ea5e9" />
    <rect x="760" y="280" width="20" height="70" rx="10" fill="#06b6d4" />
    
    <!-- Geometric Overlay -->
    <circle cx="600" cy="315" r="280" fill="none" stroke="#ffffff" stroke-width="1" stroke-dasharray="2 10" opacity="0.3" />
    <circle cx="600" cy="315" r="320" fill="none" stroke="#06b6d4" stroke-width="2" opacity="0.2" />
    
    <!-- Abstract chat bubbles / gear fragments -->
    <path d="M 850 150 A 100 100 0 0 1 950 250" fill="none" stroke="#0ea5e9" stroke-width="6" stroke-linecap="round"/>
    <path d="M 350 480 A 100 100 0 0 1 250 380" fill="none" stroke="#06b6d4" stroke-width="6" stroke-linecap="round"/>
  </g>
</svg>
